<svg width="60" height="48" viewBox="0 0 60 48" fill="none" xmlns="http://www.w3.org/2000/svg">
<g clip-path="url(#clip0_89_953)">
<path d="M16.9134 19.0322C16.8459 21.1556 17.9071 22.0959 17.9334 22.6931C17.9209 22.8147 17.8795 22.9315 17.8126 23.0337C17.7457 23.136 17.6553 23.2208 17.549 23.2809L16.349 24.1209C16.1937 24.2298 16.0106 24.2922 15.8212 24.3009C15.7809 24.2991 15.0534 24.4725 13.9012 21.9C13.1982 22.7775 12.3038 23.4825 11.2865 23.961C10.2691 24.4396 9.15568 24.679 8.03151 24.6609C6.50526 24.7444 2.36901 23.7947 2.58182 19.3913C2.43276 15.8025 5.77494 13.5731 9.23151 13.7616C9.89713 13.7634 11.2565 13.7962 13.6368 14.3494V12.885C13.889 10.4044 12.2587 8.47968 9.43588 8.76843C9.21088 8.76937 7.61713 8.72156 5.13838 9.71625C4.44838 10.0331 4.36026 9.98062 4.13057 9.98062C3.43588 9.98062 3.72182 7.96687 3.85494 7.71187C4.34338 7.11187 7.21682 5.99156 10.0368 6.00749C11.9224 5.84074 13.7978 6.42267 15.2578 7.6275C15.8512 8.29132 16.304 9.06855 16.5887 9.91223C16.8734 10.7559 16.9842 11.6486 16.9143 12.5362L16.9134 19.0322V19.0322ZM8.81151 22.0688C11.8518 22.0247 13.139 20.1966 13.4324 19.2122C13.6631 18.27 13.6246 17.6738 13.6246 16.6434C12.7181 16.4259 11.4131 16.1887 9.91588 16.1869C8.49557 16.08 5.90151 16.7147 6.00276 19.2113C5.88651 20.7853 7.04526 22.155 8.81151 22.0688V22.0688ZM24.8353 24.2297C24.0984 24.2972 23.7553 23.7741 23.6465 23.2575L18.9778 7.82156C18.8868 7.56093 18.8268 7.29187 18.7978 7.01718C18.7805 6.90393 18.809 6.78848 18.8768 6.69619C18.9447 6.6039 19.0464 6.54233 19.1596 6.52499C19.1821 6.52124 18.9599 6.52499 21.2456 6.52499C22.0687 6.44249 22.3368 7.09031 22.4221 7.49718L25.7709 20.7L28.8796 7.49718C28.9293 7.19531 29.1553 6.45937 30.0796 6.53718H31.6884C31.8918 6.52031 32.7299 6.49031 32.8771 7.50937L36.0102 20.8809L39.4668 7.50937C39.5118 7.30499 39.7218 6.44343 40.6556 6.53718H42.5043C42.584 6.52499 43.0809 6.46124 42.9965 7.34156C42.9562 7.51499 43.3162 6.34218 38.0512 23.2697C37.9434 23.7863 37.5993 24.3094 36.8624 24.2419H35.1102C34.0846 24.3497 33.9374 23.3363 33.9215 23.2341L30.8128 10.3781L27.7396 23.2209C27.7246 23.3231 27.5774 24.3366 26.5509 24.2288H24.8353V24.2297ZM50.474 24.7575C49.9227 24.7584 47.294 24.7294 45.0965 23.6053C44.8776 23.5126 44.6912 23.357 44.5608 23.1583C44.4304 22.9595 44.3621 22.7265 44.3643 22.4888V21.4809C44.3643 20.6888 44.9456 20.8341 45.1921 20.9288C46.1334 21.3094 46.7371 21.5981 47.8931 21.8288C51.329 22.5347 52.8402 21.6131 53.2106 21.4088C54.4434 20.6766 54.5409 19.0013 53.7027 18.1322C52.7202 17.3081 52.2515 17.2772 48.7218 16.1634C48.2868 16.0425 44.6249 14.8875 44.6165 11.2547C44.5593 8.60718 46.9649 5.98781 51.134 6.00937C52.3218 6.00843 55.4868 6.39656 56.3437 7.47375C56.4702 7.66968 56.5331 7.90031 56.5237 8.13375V9.08156C56.5237 9.49781 56.3718 9.70593 56.0671 9.70593C55.3443 9.62531 54.0618 8.65875 51.4584 8.69812C50.8124 8.66437 47.7187 8.78343 47.8574 11.0391C47.8171 12.8166 50.3521 13.4831 50.6418 13.56C54.0599 14.5884 55.2027 14.7591 56.5593 16.3331C58.1662 18.4191 57.2999 20.8613 56.9671 21.5306C55.1784 25.0453 50.5527 24.7594 50.474 24.7575V24.7575ZM54.2427 34.5881C47.6774 39.4369 38.1468 42.0178 30.0093 42.0178C19.0294 42.0902 8.41945 38.0529 0.265258 30.6994C-0.346929 30.1472 0.19307 29.3906 0.937445 29.8116C9.98287 34.9858 20.2242 37.7045 30.6449 37.6978C38.4269 37.6561 46.1239 36.0774 53.294 33.0525C54.3984 32.5838 55.3349 33.7838 54.2427 34.5881V34.5881ZM56.9793 31.4672C56.1393 30.3872 51.4218 30.9628 49.3096 31.215C48.6731 31.2872 48.5652 30.735 49.1418 30.3272C52.8984 27.6863 59.0681 28.4428 59.7768 29.3306C60.4846 30.2184 59.5846 36.4003 56.0681 39.3535C55.5281 39.81 55.0115 39.5691 55.2515 38.9691C56.0427 36.9769 57.8193 32.5481 56.9793 31.4672Z" fill="white"/>
</g>
<defs>
<clipPath id="clip0_89_953">
<rect width="60" height="48" fill="white"/>
</clipPath>
</defs>
</svg>
