<svg width="57" height="37" viewBox="0 0 57 37" fill="none" xmlns="http://www.w3.org/2000/svg">
<path d="M14.5299 7.68281H5.39158V14.5487H14.4156V20.8424H5.39158V27.0445C5.35243 27.7798 5.44527 28.5163 5.66572 29.2187C5.73471 29.4153 5.86562 29.584 6.03868 29.6996C6.21174 29.8152 6.41757 29.8713 6.62523 29.8595C7.18887 29.8384 7.74494 29.7223 8.27012 29.5162C8.99481 29.2601 9.69143 28.9303 10.3491 28.5321C11.1711 28.0633 11.9375 27.5029 12.6337 26.8615C13.392 26.1811 14.0669 25.4129 14.6441 24.5728L15.695 32.8576C15.016 33.3824 14.2894 33.8421 13.5246 34.2308C12.6839 34.6464 11.8134 34.9983 10.9202 35.2836C10.0469 35.5765 9.1536 35.806 8.24729 35.9701C7.49349 36.1103 6.72929 36.1868 5.96272 36.199C5.16976 36.2127 4.38548 36.0319 3.67815 35.6726C2.94814 35.2717 2.33423 34.6882 1.89619 33.979C1.35292 33.0391 0.959801 32.0197 0.731073 30.958C0.431591 29.4513 0.293715 27.9169 0.319832 26.3808V1.3891H14.5299V7.68281Z" fill="white"/>
<path d="M22.206 36.1761V7.33951H16.8145V1.04581H32.8064V7.33951H27.5062V34.2536C27.5062 35.5353 27.1407 36.1761 26.4096 36.1761H22.206Z" fill="white"/>
<path d="M48.0217 13.1068C47.4734 11.8939 46.9936 10.8182 46.5824 10.1316C46.2602 9.49753 45.8612 8.9056 45.3944 8.36936C45.0929 8.00288 44.7094 7.71278 44.275 7.52258C43.8602 7.3612 43.4176 7.28341 42.9728 7.29371C42.357 7.28746 41.7587 7.49809 41.2822 7.88877C40.7019 8.40305 40.2616 9.05669 40.0028 9.7883C39.5893 10.9168 39.3206 12.0935 39.2032 13.2899C39.0028 15.0524 38.9112 16.8257 38.9291 18.5995C38.7981 21.6323 39.0982 24.6684 39.8201 27.6167C40.4369 29.4247 41.3964 30.3172 42.7215 30.3172C43.2351 30.3333 43.7449 30.2233 44.2064 29.9969C44.6922 29.7538 45.1087 29.3916 45.4173 28.944C45.846 28.3086 46.1986 27.625 46.4681 26.9072C46.8476 25.8503 47.168 24.7729 47.4277 23.6802L50.6718 30.5461C50.2321 31.4215 49.7281 32.263 49.164 33.0636C48.683 33.7594 48.1061 34.3835 47.4505 34.9174C46.8378 35.4228 46.1421 35.8177 45.3944 36.0846C44.5331 36.3725 43.6293 36.5118 42.7215 36.4965C41.4063 36.5065 40.1179 36.124 39.0205 35.398C37.7998 34.5334 36.8047 33.3874 36.119 32.0566C35.2266 30.2804 34.5956 28.384 34.2457 26.4266C33.767 23.8228 33.545 21.1782 33.5832 18.5308C33.5397 15.8829 33.8158 13.2395 34.4056 10.658C34.8351 8.72731 35.5595 6.87463 36.5531 5.16531C37.2947 3.88214 38.3279 2.79222 39.5688 1.98409C40.5886 1.3155 41.7769 0.950467 42.9956 0.931347C44.3997 0.89244 45.7884 1.23232 47.0165 1.91544C48.3582 2.77636 49.4839 3.93541 50.3062 5.30262L48.0217 13.1068Z" fill="white"/>
<path d="M52.4994 33.384C52.4881 32.8427 52.5574 32.3028 52.7051 31.782C52.8132 31.377 52.9826 30.9911 53.2076 30.6377C53.3976 30.3574 53.6473 30.1229 53.9387 29.951C54.1767 29.8191 54.4435 29.7483 54.7155 29.7451C54.9943 29.7509 55.268 29.8214 55.5151 29.951C55.8065 30.1229 56.0562 30.3574 56.2461 30.6377C56.488 30.9846 56.666 31.3722 56.7716 31.782C56.9192 32.3028 56.9885 32.8427 56.9772 33.384C56.9858 33.9025 56.9165 34.4195 56.7716 34.9174C56.666 35.3271 56.488 35.7147 56.2461 36.0617C56.05 36.3429 55.8019 36.5837 55.5151 36.7711C55.2738 36.9177 54.9976 36.9968 54.7155 37C54.44 36.9998 54.1704 36.9203 53.9387 36.7711C53.6519 36.5837 53.4037 36.3429 53.2076 36.0617C52.9826 35.7082 52.8132 35.3223 52.7051 34.9174C52.5602 34.4195 52.4908 33.9025 52.4994 33.384Z" fill="white"/>
</svg>
