<svg width="40" height="48" viewBox="0 0 40 48" fill="none" xmlns="http://www.w3.org/2000/svg">
<path d="M19.3886 2.69494C19.1979 2.81838 19.0427 2.99405 18.9395 3.20318L0.977539 37.0549L25.1589 11.4533L21.0725 3.17952C20.9941 3.0262 20.8872 2.89107 20.7582 2.78209C20.6292 2.67311 20.4807 2.59251 20.3215 2.5451C20.1624 2.4977 19.9958 2.4844 19.8317 2.50607C19.6676 2.52775 19.5092 2.58395 19.3661 2.67128L19.3886 2.69494Z" fill="#FFCB2A"/>
<path d="M8.58894 0.685501C8.46935 0.445212 8.28078 0.250762 8.05008 0.129936C7.82015 0.0123782 7.56058 -0.0248471 7.30915 0.0235983C7.05507 0.0623997 6.8213 0.191721 6.6468 0.390008C6.46261 0.575472 6.34383 0.821365 6.31001 1.08733L1 37.0548L14.3031 11.9615L8.58894 0.685501Z" fill="#F9A01B"/>
<path d="M34.9482 3.9478C34.911 3.71229 34.814 3.4917 34.6675 3.30948C34.5198 3.132 34.3286 3.00067 34.1148 2.9298C33.901 2.85893 33.6728 2.85129 33.4551 2.90765C33.2389 2.96684 33.0414 3.08506 32.8826 3.2504L1 37.0431L18.6364 47.5154C19.183 47.833 19.7971 47.9997 20.4214 47.9997C21.0457 47.9997 21.6598 47.833 22.2064 47.5154L40 37.0431L34.9482 3.9478Z" fill="#FFCB2A"/>
<path d="M14.3031 11.9616L17.8394 19.2071L1 37.0431L14.3031 11.9616Z" fill="#F57F20"/>
</svg>
