<svg width="35" height="35" viewBox="0 0 35 35" fill="none" xmlns="http://www.w3.org/2000/svg">
<path d="M17.5 32.0833C25.5541 32.0833 32.0834 25.5541 32.0834 17.5C32.0834 9.44584 25.5541 2.91666 17.5 2.91666C9.44586 2.91666 2.91669 9.44584 2.91669 17.5C2.91669 25.5541 9.44586 32.0833 17.5 32.0833Z" stroke="white" stroke-linecap="round" stroke-linejoin="round"/>
<path d="M20.9028 27.7083V24.9915C20.9392 24.5401 20.8767 24.0863 20.719 23.6603C20.5615 23.2343 20.3126 22.8458 19.989 22.5207C23.0417 22.1894 26.25 21.0629 26.25 15.8942C26.2497 14.5725 25.7277 13.3015 24.7917 12.3442C25.2349 11.1879 25.2035 9.90978 24.7042 8.77536C24.7042 8.77536 23.5569 8.44404 20.9028 10.1764C18.6744 9.58836 16.3256 9.58836 14.0972 10.1764C11.4431 8.44404 10.2958 8.77536 10.2958 8.77536C9.79648 9.90978 9.76516 11.1879 10.2083 12.3442C9.26542 13.3086 8.74275 14.5911 8.75001 15.9225C8.75001 21.0534 11.9583 22.1799 15.0111 22.549C14.6913 22.8709 14.4446 23.2547 14.2871 23.6756C14.1297 24.0963 14.065 24.5446 14.0972 24.9915V27.7083" stroke="white" stroke-linecap="round" stroke-linejoin="round"/>
<path d="M14.0972 25.8151C11.1806 26.7364 8.75002 25.8151 7.29169 22.9752" stroke="white" stroke-linecap="round" stroke-linejoin="round"/>
</svg>
