<svg width="35" height="35" viewBox="0 0 35 35" fill="none" xmlns="http://www.w3.org/2000/svg">
<path d="M4.375 16.0417C4.375 10.5419 4.375 7.79209 6.08354 6.08354C7.79209 4.375 10.5419 4.375 16.0417 4.375H18.9583C24.458 4.375 27.208 4.375 28.9164 6.08354C30.625 7.79209 30.625 10.5419 30.625 16.0417V18.9583C30.625 24.458 30.625 27.208 28.9164 28.9164C27.208 30.625 24.458 30.625 18.9583 30.625H16.0417C10.5419 30.625 7.79209 30.625 6.08354 28.9164C4.375 27.208 4.375 24.458 4.375 18.9583V16.0417Z" stroke="white"/>
<path d="M24.0625 13.125C25.2706 13.125 26.25 12.1456 26.25 10.9375C26.25 9.72938 25.2706 8.75 24.0625 8.75C22.8544 8.75 21.875 9.72938 21.875 10.9375C21.875 12.1456 22.8544 13.125 24.0625 13.125Z" fill="white"/>
<path d="M17.5 21.875C19.9162 21.875 21.875 19.9162 21.875 17.5C21.875 15.0838 19.9162 13.125 17.5 13.125C15.0838 13.125 13.125 15.0838 13.125 17.5C13.125 19.9162 15.0838 21.875 17.5 21.875Z" stroke="white"/>
</svg>
