<svg width="32" height="28" viewBox="0 0 32 28" fill="none" xmlns="http://www.w3.org/2000/svg">
<g clip-path="url(#clip0_288_196)">
<path d="M6.3225 28C6.17455 27.9857 6.03342 27.9265 5.91555 27.8293C5.59793 27.6266 5.56815 27.4987 5.56815 27.456C5.56501 27.1662 5.61914 26.8789 5.72696 26.6133L6.95774 21.8346L6.25301 21.4293C4.43772 20.4372 2.85868 19.0102 1.63764 17.2586C0.574829 15.7143 -0.00231714 13.8461 -0.0100098 11.9253C-0.0100098 8.72527 1.6277 5.78129 4.60537 3.54129C6.16412 2.38862 7.8873 1.5167 9.7071 0.959907C11.7435 0.313852 13.8568 -0.00944813 15.9801 1.09589e-05C18.1034 -0.00944813 20.2166 0.313852 22.253 0.959907C24.0759 1.51669 25.8024 2.38857 27.3647 3.54129C30.3423 5.78129 31.9801 8.75727 31.9801 11.9253C31.9801 15.0933 30.3423 18.0799 27.3647 20.3199C25.8024 21.4726 24.0759 22.3445 22.253 22.9013C20.2157 23.543 18.1031 23.8663 15.9801 23.8613C15.3051 23.8613 14.6203 23.8612 13.995 23.7652H13.6079L7.18602 27.7333C6.91386 27.8729 6.62207 27.963 6.3225 28ZM8.07931 21.6L6.75921 26.7199L13.3299 22.656H13.5185C14.3392 22.7538 15.1643 22.8036 15.99 22.8054C24.2381 22.8054 30.9478 17.8987 30.9478 11.8613C30.9478 5.82401 24.2381 0.928006 15.99 0.928006C7.74185 0.928006 1.0421 5.83467 1.0421 11.8613C1.0421 15.5627 3.56319 18.9866 7.8014 21.0133L8.16866 21.1947L8.07931 21.6Z" fill="white"/>
<path d="M7.89085 16.4373C7.78988 16.4373 7.69289 16.3951 7.62057 16.3193C7.54825 16.2436 7.50633 16.1404 7.50374 16.032V8.48001H5.02235C4.92048 8.4773 4.82347 8.43257 4.75142 8.35514C4.67936 8.2777 4.63777 8.17347 4.63525 8.06399C4.63784 7.95552 4.67977 7.85248 4.75208 7.77675C4.8244 7.70103 4.92138 7.65862 5.02235 7.65865H10.7196C10.8197 7.65865 10.9156 7.70139 10.9863 7.7774C11.0571 7.85342 11.0968 7.95649 11.0968 8.06399C11.0968 8.1725 11.0574 8.27677 10.987 8.35449C10.9165 8.4322 10.8206 8.47723 10.7196 8.48001H8.26801V16.032C8.26801 16.1395 8.22828 16.2427 8.15754 16.3187C8.08681 16.3947 7.99088 16.4373 7.89085 16.4373Z" fill="white"/>
<path d="M22.6204 16.448C22.5194 16.448 22.4224 16.4057 22.3501 16.33C22.2778 16.2543 22.2359 16.1511 22.2333 16.0426V13.2054C22.2233 13.1418 22.2233 13.0769 22.2333 13.0133V8.05331C22.2359 7.94484 22.2778 7.84179 22.3501 7.76607C22.4224 7.69035 22.5194 7.64794 22.6204 7.64797C22.7204 7.64797 22.8163 7.69071 22.8871 7.76672C22.9578 7.84274 22.9975 7.94581 22.9975 8.05331V12.1174L27.1365 7.85071C27.2088 7.78608 27.3005 7.75186 27.3946 7.75461C27.4468 7.75282 27.4987 7.76336 27.5467 7.78547C27.5947 7.80759 27.6377 7.84074 27.6725 7.88261C27.734 7.95989 27.7678 8.05825 27.7678 8.15995C27.7678 8.26165 27.734 8.36001 27.6725 8.4373L24.8238 11.4133L27.7022 15.8294C27.7315 15.8737 27.7518 15.924 27.7621 15.9773C27.7723 16.0305 27.7722 16.0855 27.7618 16.1387C27.7533 16.1924 27.7349 16.2436 27.7076 16.2894C27.6803 16.3352 27.6447 16.3747 27.603 16.4054C27.5384 16.4522 27.4626 16.4781 27.3846 16.48C27.3233 16.4798 27.2631 16.4631 27.2093 16.4314C27.1556 16.3998 27.1101 16.354 27.0769 16.2986L24.268 12.032L22.9975 13.3546V16.1387C22.9771 16.2289 22.9285 16.3087 22.8599 16.365C22.7912 16.4213 22.7067 16.4506 22.6204 16.448Z" fill="white"/>
<path d="M16.5261 15.904L15.8809 14.0266V13.92C15.8777 13.8246 15.8425 13.7336 15.7816 13.664L15.7221 13.6001L13.8462 8.20266C13.7984 8.04521 13.7074 7.90694 13.5851 7.80605C13.4629 7.70516 13.3152 7.64634 13.1613 7.6373C13.0048 7.63833 12.8521 7.68978 12.723 7.78482C12.5939 7.87987 12.4942 8.01417 12.4367 8.17063L9.51861 15.8933C9.48218 15.9939 9.48355 16.1057 9.52244 16.2053C9.56134 16.3048 9.6347 16.3842 9.72704 16.4266H9.87593C9.95097 16.4259 10.0241 16.4013 10.086 16.3557C10.1479 16.3101 10.1957 16.2456 10.2233 16.1706L10.9181 14.336H15.1662L15.8015 16.16C15.8297 16.2366 15.8791 16.3022 15.9429 16.348C16.0068 16.3937 16.0821 16.4174 16.1588 16.4159C16.2045 16.427 16.252 16.427 16.2978 16.4159C16.3907 16.3772 16.4657 16.3006 16.5062 16.2027C16.5471 16.1092 16.5542 16.0027 16.5261 15.904ZM11.2357 13.536L13.1514 8.49068L14.8983 13.536H11.2357Z" fill="white"/>
<path d="M17.4194 16.4159C17.3685 16.4159 17.3182 16.4052 17.2712 16.3843C17.2243 16.3634 17.1816 16.3328 17.1456 16.2942C17.1097 16.2556 17.0812 16.2096 17.0617 16.1592C17.0423 16.1087 17.0323 16.0547 17.0323 16.0001V8.11737C17.0289 8.0111 17.0646 7.90765 17.1315 7.82935C17.2014 7.74845 17.2971 7.69891 17.3995 7.69068C17.4978 7.69064 17.5923 7.7318 17.6628 7.80553C17.7332 7.87925 17.7741 7.9797 17.7767 8.08534V15.552H20.7543C20.8544 15.552 20.9503 15.5947 21.0211 15.6708C21.0918 15.7468 21.1315 15.8498 21.1315 15.9573C21.1328 16.0115 21.1241 16.0653 21.1057 16.1157C21.0874 16.1661 21.0598 16.2121 21.0246 16.2508C20.9895 16.2896 20.9474 16.3204 20.901 16.3415C20.8546 16.3625 20.8047 16.3734 20.7543 16.3734L17.4194 16.4159Z" fill="white"/>
</g>
<defs>
<clipPath id="clip0_288_196">
<rect width="32" height="28" fill="white"/>
</clipPath>
</defs>
</svg>
