<svg xmlns="http://www.w3.org/2000/svg" viewBox="0 0 202.61 63.66"><defs><style>.cls-1{fill:#fff;}</style></defs><g id="Layer_2" data-name="Layer 2"><g id="Layer_1-2" data-name="Layer 1"><path class="cls-1" d="M22.12,13.23a22,22,0,0,1,21.8,22.46c-.12,12-10.16,22.08-22,22A22.19,22.19,0,0,1,0,35,21.79,21.79,0,0,1,22.12,13.23Zm12.25,22.1A12.41,12.41,0,0,0,21.85,22.72,12.7,12.7,0,0,0,22,48.11,12.48,12.48,0,0,0,34.37,35.33Z"/><path class="cls-1" d="M95.89,20.79l-9.84,1.94c-.17.27-.44.47-.46.73-.35,4.43-.76,25.85-4.86,25.58S66,47.24,65.13,42.55c-1.58-8.5-4.4-22.95-6.22-31.41C57.18,3.13,51.75-1.35,45.65.36c1.18,6,2.36,12,3.55,18,1.62,8.16,4.11,21.93,5.89,30.05,2.35,10.71,20,16.45,28.53,15.06S97.14,46.79,96,36.07C95.87,35.27,96.19,22,95.89,20.79Z"/><path class="cls-1" d="M152.62,25.38c.77-4.86,6.21-10.57,12.06-9.59s16.59,6.72,16.6,11.79c0,3.85-.34,10.28-.46,14.11V42c1.1,4.22,2.47,8.08,3.85,7.9,2.77-.37,9.59-1.85,9.65-5.17.11-6,.4-16.25.68-22.25.26-5.68,3.38-9,7.62-8.07-.13,4.22-.25,8.48-.38,12.73-.18,5.78-.32,15.53-.61,21.29-.39,7.59-11.51,12.32-17.3,11.68S173.51,49,173.11,41.43L173.72,31h0c0-1,.08-2,.12-2.78.1-2.19-6.59-4.79-9.33-5.69s-6,8.34-6.88,10.19c0,.11-.25.15-.41.23l-6.75-1C150.46,31.43,152.57,25.75,152.62,25.38Z"/><path class="cls-1" d="M143.08,52,124.37,32.2l16.8-15.14a5.24,5.24,0,1,0-7-7.78l-17,15.31-2.57-2.71a4.11,4.11,0,1,0-6,5.65l28.48,30.09a4.11,4.11,0,0,0,6-5.65Z"/><circle class="cls-1" cx="142.27" cy="31.83" r="3.65"/></g></g></svg>