<svg width="42" height="48" viewBox="0 0 42 48" fill="none" xmlns="http://www.w3.org/2000/svg">
<g clip-path="url(#clip0_89_955)">
<path d="M21 47.625C20.3719 47.625 19.7344 47.4563 19.1813 47.1375L13.3969 43.7157C12.5344 43.2282 12.9563 43.0594 13.2375 42.9657C14.3907 42.5625 14.625 42.4782 15.8532 41.775C15.9844 41.7 16.1532 41.7282 16.2844 41.8125L20.7282 44.4469C20.8875 44.5407 21.1125 44.5407 21.2625 44.4469L38.5782 34.4532C38.7375 34.3594 38.8407 34.1719 38.8407 33.9844V13.9969C38.8407 13.8 38.7375 13.6219 38.5688 13.5188L21.2625 3.53439C21.1032 3.44064 20.8875 3.44064 20.7282 3.53439L3.4313 13.5281C3.26255 13.6219 3.15942 13.8094 3.15942 14.0063V33.9844C3.15942 34.1719 3.26255 34.3594 3.4313 34.4438L8.17504 37.1813C10.7532 38.4657 12.3282 36.9563 12.3282 35.4282V15.7031C12.3282 15.4219 12.5532 15.2063 12.8344 15.2063H15.0282C15.3 15.2063 15.5344 15.4219 15.5344 15.7031V35.4375C15.5344 38.8688 13.6594 40.8375 10.4063 40.8375C9.40317 40.8375 8.61567 40.8375 6.42192 39.75L1.88442 37.1344C0.759423 36.4875 0.0656738 35.2782 0.0656738 33.975V13.9969C0.0656738 12.7031 0.759423 11.4844 1.88442 10.8375L19.1813 0.843762C20.2782 0.225012 21.7313 0.225012 22.8188 0.843762L40.1344 10.8469C41.2594 11.4938 41.9532 12.7031 41.9532 14.0063V33.9844C41.9532 35.2782 41.2594 36.4875 40.1344 37.1438L22.8188 47.1375C22.2657 47.4563 21.6375 47.625 21 47.625ZM34.9782 27.9282C34.9782 24.1875 32.4469 23.1938 27.1313 22.4906C21.75 21.7781 21.2063 21.4125 21.2063 20.1563C21.2063 19.1156 21.6657 17.7281 25.65 17.7281C29.2032 17.7281 30.5157 18.4969 31.0594 20.8969C31.1063 21.1219 31.3125 21.2906 31.5469 21.2906H33.7969C33.9375 21.2906 34.0688 21.2344 34.1625 21.1313C34.2563 21.0281 34.3032 20.8875 34.2938 20.7469C33.9469 16.6125 31.2 14.6906 25.65 14.6906C20.7094 14.6906 17.7657 16.7719 17.7657 20.2688C17.7657 24.0563 20.7 25.1063 25.4344 25.575C31.1063 26.1281 31.5469 26.9625 31.5469 28.0782C31.5469 30.0094 29.9907 30.8344 26.3438 30.8344C21.7594 30.8344 20.7563 29.6813 20.4188 27.4032C20.3813 27.1594 20.175 26.9813 19.9219 26.9813H17.6813C17.4 26.9813 17.1844 27.2063 17.1844 27.4782C17.1844 30.3938 18.7688 33.8719 26.3532 33.8719C31.8282 33.8625 34.9782 31.6969 34.9782 27.9282V27.9282Z" fill="#4E9842"/>
</g>
<defs>
<clipPath id="clip0_89_955">
<rect width="42" height="48" fill="white"/>
</clipPath>
</defs>
</svg>
