<svg width="35" height="39" viewBox="0 0 35 39" fill="none" xmlns="http://www.w3.org/2000/svg">
<g filter="url(#filter0_d_89_931)">
<g clip-path="url(#clip0_89_931)">
<path d="M25.0149 11.0142C25.1077 11.5308 24.9874 12.0344 24.5068 12.0798L23.7091 12.2236L23.3776 24.6886C22.6754 25.0636 22.0363 25.2695 21.5089 25.2511C20.658 25.2214 20.4527 24.9292 19.8423 24.0582L14.8801 15.1467L14.6549 23.5933L16.2904 24.0479C16.2904 24.0479 16.2634 25.0681 14.9392 25.0222L11.2764 25.1229C11.1764 24.8914 11.298 24.3258 11.6732 24.2295L12.6339 23.9773L12.9276 12.8127L11.6061 12.6526C11.5133 12.136 11.7989 11.4098 12.5403 11.3793L16.4706 11.23L21.6413 20.2625L21.8494 12.439L20.4752 12.2196C20.3851 11.5946 20.8188 11.1535 21.3521 11.1194L25.0149 11.0142Z" fill="white"/>
<path fill-rule="evenodd" clip-rule="evenodd" d="M17.4998 31C14.8872 31.0008 12.2767 30.8568 9.68013 30.5688C8.35668 30.4182 7.1218 29.8297 6.17232 28.8971C5.22281 27.9645 4.61924 26.7373 4.46075 25.417C3.84503 20.1571 3.84503 14.8434 4.46075 9.58347C4.61914 8.26303 5.22272 7.03564 6.17232 6.10292C7.12193 5.1705 8.35673 4.58203 9.68013 4.43121C14.8773 3.85629 20.1222 3.85629 25.3194 4.43121C26.6428 4.58203 27.8776 5.1705 28.8272 6.10292C29.7768 7.03564 30.3804 8.26303 30.5388 9.58347C31.1545 14.8434 31.1545 20.1571 30.5388 25.417C30.3803 26.7373 29.7767 27.9645 28.8272 28.8971C27.8777 29.8297 26.6428 30.4182 25.3194 30.5688C22.7228 30.8568 20.1123 31.0008 17.4998 31ZM17.4998 4.89927C14.9206 4.89875 12.3435 5.0409 9.78012 5.32507C7.48302 5.58135 5.62236 7.41627 5.35617 9.68643C4.74901 14.877 4.74901 20.1204 5.35617 25.3109C5.62236 27.5829 7.48302 29.4178 9.78012 29.6723C12.3435 29.9567 14.9206 30.0988 17.4998 30.0981C20.0787 30.0993 22.6557 29.9576 25.2189 29.6736C27.516 29.4178 29.3771 27.5829 29.6433 25.3123C30.2509 20.1216 30.2509 14.878 29.6433 9.68733C29.3771 7.41582 27.5165 5.5809 25.2189 5.32597C22.6557 5.04149 20.0787 4.89904 17.4998 4.89927Z" fill="white"/>
</g>
</g>
<defs>
<filter id="filter0_d_89_931" x="-4" y="0" width="43" height="43" filterUnits="userSpaceOnUse" color-interpolation-filters="sRGB">
<feFlood flood-opacity="0" result="BackgroundImageFix"/>
<feColorMatrix in="SourceAlpha" type="matrix" values="0 0 0 0 0 0 0 0 0 0 0 0 0 0 0 0 0 0 127 0" result="hardAlpha"/>
<feOffset dy="4"/>
<feGaussianBlur stdDeviation="2"/>
<feComposite in2="hardAlpha" operator="out"/>
<feColorMatrix type="matrix" values="0 0 0 0 0 0 0 0 0 0 0 0 0 0 0 0 0 0 0.25 0"/>
<feBlend mode="normal" in2="BackgroundImageFix" result="effect1_dropShadow_89_931"/>
<feBlend mode="normal" in="SourceGraphic" in2="effect1_dropShadow_89_931" result="shape"/>
</filter>
<clipPath id="clip0_89_931">
<rect width="27" height="27" fill="white" transform="translate(4 4)"/>
</clipPath>
</defs>
</svg>
