<svg width="48" height="48" viewBox="0 0 48 48" fill="none" xmlns="http://www.w3.org/2000/svg">
<path d="M39.2063 16.6125C38.7 16.4437 38.1938 16.2844 37.6875 16.1344C37.7719 15.7875 37.8469 15.4406 37.9219 15.0937C39.075 9.50624 38.3156 5.01561 35.7562 3.53436C33.2906 2.11874 29.2687 3.59061 25.2 7.13436C24.7969 7.48124 24.4031 7.84686 24.0281 8.21249C23.775 7.96874 23.5125 7.72499 23.25 7.49061C18.9844 3.70311 14.7094 2.10936 12.15 3.59999C9.69375 5.02499 8.9625 9.25311 9.99375 14.5406C10.0969 15.0656 10.2094 15.5812 10.3406 16.1062C9.74063 16.275 9.15 16.4625 8.59687 16.6594C3.59062 18.3937 0 21.1312 0 23.9625C0 26.8875 3.825 29.8219 9.02813 31.6031C9.45 31.7437 9.87188 31.8844 10.3031 32.0062C10.1625 32.5687 10.0406 33.1219 9.92813 33.6937C8.94375 38.8969 9.7125 43.0219 12.1688 44.4375C14.7 45.9 18.9562 44.4 23.1 40.7719C23.4281 40.4812 23.7562 40.1812 24.0844 39.8625C24.4969 40.2656 24.9281 40.65 25.3594 41.025C29.3719 44.475 33.3375 45.8719 35.7844 44.4562C38.3156 42.9937 39.1406 38.5594 38.0719 33.1594C37.9875 32.7469 37.8938 32.325 37.7906 31.8937C38.0906 31.8094 38.3813 31.7156 38.6719 31.6219C44.0813 29.8312 48 26.9344 48 23.9625C48 21.1219 44.3063 18.3656 39.2063 16.6125V16.6125ZM26.5219 8.65311C30.0094 5.61561 33.2625 4.42499 34.7438 5.27811C36.3281 6.18749 36.9375 9.86249 35.9437 14.6906C35.8781 15.0094 35.8125 15.3187 35.7281 15.6281C33.6469 15.1594 31.5375 14.8219 29.4187 14.6344C28.2 12.8906 26.8688 11.2219 25.425 9.65624C25.7906 9.30936 26.1469 8.98124 26.5219 8.65311V8.65311ZM15.675 28.8281C16.1531 29.6437 16.6406 30.4594 17.1562 31.2562C15.6937 31.0969 14.2406 30.8625 12.8063 30.5531C13.2188 29.2031 13.7344 27.8062 14.3344 26.3812C14.7656 27.2062 15.2062 28.0219 15.675 28.8281V28.8281ZM12.8344 17.55C14.1844 17.25 15.6188 17.0062 17.1094 16.8187C16.6125 17.5969 16.125 18.3937 15.6656 19.2C15.2063 19.9969 14.7562 20.8125 14.3344 21.6375C13.7437 20.2406 13.2469 18.8719 12.8344 17.55ZM15.4031 24.0094C16.0219 22.7156 16.6969 21.45 17.4094 20.2031C18.1219 18.9562 18.8906 17.7469 19.6969 16.5562C21.1031 16.4531 22.5375 16.3969 24 16.3969C25.4625 16.3969 26.9062 16.4531 28.3031 16.5562C29.1 17.7375 29.8594 18.9469 30.5813 20.1844C31.3031 21.4219 31.9781 22.6875 32.6156 23.9719C31.9875 25.2656 31.3125 26.5406 30.5906 27.7969C29.8781 29.0437 29.1188 30.2531 28.3219 31.4531C26.925 31.5562 25.4719 31.6031 24 31.6031C22.5281 31.6031 21.1031 31.5562 19.725 31.4719C18.9094 30.2812 18.1406 29.0625 17.4188 27.8156C16.6969 26.5687 16.0313 25.3031 15.4031 24.0094ZM32.3344 28.8094C32.8125 27.9844 33.2625 27.15 33.7031 26.3062C34.3031 27.6656 34.8281 29.0437 35.2875 30.4594C33.8344 30.7875 32.3625 31.0406 30.8812 31.2094C31.3875 30.4219 31.8656 29.6156 32.3344 28.8094ZM33.6844 21.6375C33.2437 20.8125 32.7937 19.9875 32.325 19.1812C31.8656 18.3844 31.3875 17.5969 30.8906 16.8187C32.4 17.0062 33.8437 17.2594 35.1937 17.5687C34.7625 18.9562 34.2562 20.3062 33.6844 21.6375V21.6375ZM24.0188 11.0906C25.0031 12.1594 25.9312 13.2844 26.7937 14.4469C24.9375 14.3625 23.0719 14.3625 21.2156 14.4469C22.1344 13.2375 23.0813 12.1125 24.0188 11.0906ZM13.1437 5.34374C14.7187 4.42499 18.2156 5.73749 21.9 8.99999C22.1344 9.20624 22.3687 9.43124 22.6125 9.65624C21.1594 11.2219 19.8188 12.8906 18.5906 14.6344C16.4719 14.8219 14.3719 15.15 12.2906 15.6094C12.1688 15.1312 12.0656 14.6437 11.9625 14.1562C11.0812 9.61874 11.6625 6.19686 13.1437 5.34374V5.34374ZM10.8469 30.0562C10.4531 29.9437 10.0688 29.8219 9.68438 29.6906C7.6875 29.0625 5.41875 28.0687 3.77812 26.7656C2.83125 26.1094 2.19375 25.0969 2.01562 23.9625C2.01562 22.2469 4.97812 20.0531 9.25312 18.5625C9.7875 18.375 10.3312 18.2062 10.875 18.0469C11.5125 20.0812 12.2812 22.0781 13.1719 24.0094C12.2719 25.9687 11.4937 27.9937 10.8469 30.0562V30.0562ZM21.7781 39.2437C20.2313 40.6594 18.4406 41.7844 16.4906 42.5531C15.45 43.05 14.25 43.0969 13.1813 42.675C11.6906 41.8125 11.0719 38.5031 11.9156 34.05C12.0187 33.525 12.1313 33 12.2625 32.4844C14.3625 32.9344 16.4812 33.2437 18.6281 33.4031C19.8656 35.1562 21.225 36.8344 22.6781 38.4094C22.3781 38.7 22.0781 38.9812 21.7781 39.2437ZM24.075 36.9656C23.1187 35.9344 22.1625 34.7906 21.2344 33.5625C22.1344 33.6 23.0625 33.6187 24 33.6187C24.9656 33.6187 25.9125 33.6 26.85 33.5531C25.9875 34.7437 25.0594 35.8781 24.075 36.9656V36.9656ZM36.3281 39.7781C36.2438 40.9219 35.6813 41.9906 34.7812 42.7125C33.2906 43.575 30.1125 42.45 26.6813 39.5062C26.2875 39.1687 25.8937 38.8031 25.4906 38.4281C26.925 36.8437 28.2469 35.1656 29.4469 33.4031C31.5938 33.225 33.7312 32.8969 35.8406 32.4187C35.9344 32.8031 36.0187 33.1875 36.0938 33.5625C36.5531 35.5875 36.6281 37.6969 36.3281 39.7781V39.7781ZM38.0344 29.7C37.7719 29.7844 37.5094 29.8687 37.2375 29.9437C36.5813 27.9 35.775 25.9031 34.8469 23.9625C35.7469 22.05 36.5063 20.0812 37.1438 18.0656C37.6313 18.2062 38.1 18.3562 38.55 18.5062C42.9188 20.0062 45.9844 22.2375 45.9844 23.9437C45.9844 25.7812 42.7125 28.1531 38.0344 29.7ZM24 28.2937C26.3719 28.2937 28.2937 26.3719 28.2937 24C28.2937 21.6281 26.3719 19.7062 24 19.7062C21.6281 19.7062 19.7062 21.6281 19.7062 24C19.7062 26.3719 21.6281 28.2937 24 28.2937Z" fill="#33E0FF"/>
</svg>
