<?xml version="1.0" encoding="utf-8"?>
<svg xmlns="http://www.w3.org/2000/svg" 
     xmlns:xlink="http://www.w3.org/1999/xlink" 
     x="0px" y="0px" 
     viewBox="0 0 122.88 122.78" 
     xml:space="preserve">
  <g>
    <path d="M25.91,77.62c0,7.14-5.77,12.9-12.9,12.9S0.1,84.75,0.1,77.62c0-7.14,5.77-12.9,12.9-12.9h12.9V77.62L25.91,77.62z 
             M32.36,77.62c0-7.14,5.77-12.9,12.9-12.9s12.9,5.77,12.9,12.9v32.26c0,7.14-5.77,12.9-12.9,12.9s-12.9-5.77-12.9-12.9V77.62L32.36,77.62z"
          style="fill:#E01E5A;" />
    <path d="M45.26,25.81c-7.14,0-12.9-5.77-12.9-12.9c0-7.14,5.77-12.9,12.9-12.9s12.9,5.77,12.9,12.9v12.9H45.26L45.26,25.81z 
             M45.26,32.36c7.14,0,12.9,5.77,12.9,12.9c0,7.14-5.77,12.9-12.9,12.9H12.9C5.77,58.17,0,52.4,0,45.26c0-7.14,5.77-12.9,12.9-12.9H45.26L45.26,32.36z"
          style="fill:#36C5F0;" />
    <path d="M96.97,45.26c0-7.14,5.77-12.9,12.9-12.9c7.14,0,12.9,5.77,12.9,12.9c0,7.14-5.77,12.9-12.9,12.9h-12.9V45.26L96.97,45.26z 
             M90.52,45.26c0,7.14-5.77,12.9-12.9,12.9c-7.14,0-12.9-5.77-12.9-12.9V12.9c0-7.14,5.77-12.9,12.9-12.9c7.14,0,12.9,5.77,12.9,12.9V45.26L90.52,45.26z"
          style="fill:#2EB67D;" />
    <path d="M77.62,96.97c7.14,0,12.9,5.77,12.9,12.9c0,7.14-5.77,12.9-12.9,12.9c-7.14,0-12.9-5.77-12.9-12.9v-12.9H77.62L77.62,96.97z 
             M77.62,90.52c-7.14,0-12.9-5.77-12.9-12.9c0-7.14,5.77-12.9,12.9-12.9h32.36c7.14,0,12.9,5.77,12.9,12.9c0,7.14-5.77,12.9-12.9,12.9H77.62L77.62,90.52z"
          style="fill:#ECB22E;" />
  </g>
</svg>
