<svg width="14" height="15" viewBox="0 0 14 15" fill="none" xmlns="http://www.w3.org/2000/svg">
<g clip-path="url(#clip0_307_190)">
<path d="M0 1.875C0 2.37228 0.184374 2.84919 0.512563 3.20083C0.840752 3.55246 1.28587 3.75 1.75 3.75C2.21413 3.75 2.65925 3.55246 2.98744 3.20083C3.31563 2.84919 3.5 2.37228 3.5 1.875C3.5 1.37772 3.31563 0.900805 2.98744 0.549175C2.65925 0.197544 2.21413 0 1.75 0C1.28587 0 0.840752 0.197544 0.512563 0.549175C0.184374 0.900805 0 1.37772 0 1.875ZM5.25 13.125C5.25 13.6223 5.43437 14.0992 5.76256 14.4508C6.09075 14.8025 6.53587 15 7 15C7.46413 15 7.90925 14.8025 8.23744 14.4508C8.56563 14.0992 8.75 13.6223 8.75 13.125C8.75 12.6277 8.56563 12.1508 8.23744 11.7992C7.90925 11.4475 7.46413 11.25 7 11.25C6.53587 11.25 6.09075 11.4475 5.76256 11.7992C5.43437 12.1508 5.25 12.6277 5.25 13.125ZM5.25 7.5C5.25 7.99728 5.43437 8.47419 5.76256 8.82583C6.09075 9.17746 6.53587 9.375 7 9.375C7.46413 9.375 7.90925 9.17746 8.23744 8.82583C8.56563 8.47419 8.75 7.99728 8.75 7.5C8.75 7.00272 8.56563 6.52581 8.23744 6.17417C7.90925 5.82254 7.46413 5.625 7 5.625C6.53587 5.625 6.09075 5.82254 5.76256 6.17417C5.43437 6.52581 5.25 7.00272 5.25 7.5ZM5.25 1.875C5.25 2.37228 5.43437 2.84919 5.76256 3.20083C6.09075 3.55246 6.53587 3.75 7 3.75C7.46413 3.75 7.90925 3.55246 8.23744 3.20083C8.56563 2.84919 8.75 2.37228 8.75 1.875C8.75 1.37772 8.56563 0.900805 8.23744 0.549175C7.90925 0.197544 7.46413 0 7 0C6.53587 0 6.09075 0.197544 5.76256 0.549175C5.43437 0.900805 5.25 1.37772 5.25 1.875ZM10.5 1.875C10.5 2.37228 10.6844 2.84919 11.0126 3.20083C11.3408 3.55246 11.7859 3.75 12.25 3.75C12.7141 3.75 13.1592 3.55246 13.4874 3.20083C13.8156 2.84919 14 2.37228 14 1.875C14 1.37772 13.8156 0.900805 13.4874 0.549175C13.1592 0.197544 12.7141 0 12.25 0C11.7859 0 11.3408 0.197544 11.0126 0.549175C10.6844 0.900805 10.5 1.37772 10.5 1.875Z" fill="white"/>
</g>
<defs>
<clipPath id="clip0_307_190">
<rect width="14" height="15" fill="white"/>
</clipPath>
</defs>
</svg>
